<?xml version="1.0" encoding="UTF-8" standalone="no"?>
<svg
   xmlns:dc="http://purl.org/dc/elements/1.1/"
   xmlns:cc="http://creativecommons.org/ns#"
   xmlns:rdf="http://www.w3.org/1999/02/22-rdf-syntax-ns#"
   xmlns:svg="http://www.w3.org/2000/svg"
   xmlns="http://www.w3.org/2000/svg"
   xmlns:sodipodi="http://sodipodi.sourceforge.net/DTD/sodipodi-0.dtd"
   xmlns:inkscape="http://www.inkscape.org/namespaces/inkscape"
   inkscape:version="1.0 (4035a4fb49, 2020-05-01)"
   sodipodi:docname="building.svg"
   xml:space="preserve"
   style="enable-background:new 0 0 315 315;"
   viewBox="0 0 315 315"
   y="0px"
   x="0px"
   id="Capa_1"
   version="1.1"><metadata
   id="metadata130"><rdf:RDF><cc:Work
       rdf:about=""><dc:format>image/svg+xml</dc:format><dc:type
         rdf:resource="http://purl.org/dc/dcmitype/StillImage" /></cc:Work></rdf:RDF></metadata><defs
   id="defs128" /><sodipodi:namedview
   inkscape:current-layer="Capa_1"
   inkscape:window-maximized="1"
   inkscape:window-y="-8"
   inkscape:window-x="-8"
   inkscape:cy="133.09194"
   inkscape:cx="107.8403"
   inkscape:zoom="9.2485077"
   showgrid="false"
   id="namedview126"
   inkscape:window-height="705"
   inkscape:window-width="1366"
   inkscape:pageshadow="2"
   inkscape:pageopacity="0"
   guidetolerance="10"
   gridtolerance="10"
   objecttolerance="10"
   borderopacity="1"
   bordercolor="#666666"
   pagecolor="#ffffff" />
<g
   id="g93">
	<path
   id="path71"
   d="M293,100.701h22l-22-27.681V73h-0.018L249,17.659H66L22.016,73H22v0.021L0,100.701h22v166.64H0v30h315v-30h-22V100.701z    M117.5,223.833v42.209H52V103h211v163.042h-65.5v-42.209H117.5z" />
	<rect
   id="rect73"
   height="30"
   width="30"
   y="123.833"
   x="67.5" />
	<rect
   id="rect75"
   height="30"
   width="30"
   y="123.833"
   x="117.5" />
	<rect
   id="rect77"
   height="30"
   width="30"
   y="123.833"
   x="167.5" />
	<rect
   id="rect79"
   height="30"
   width="30"
   y="123.833"
   x="217.5" />
	<rect
   id="rect81"
   height="30"
   width="30"
   y="173.833"
   x="67.5" />
	<rect
   id="rect83"
   height="30"
   width="30"
   y="173.833"
   x="117.5" />
	<rect
   id="rect85"
   height="30"
   width="30"
   y="173.833"
   x="167.5" />
	<rect
   id="rect87"
   height="30"
   width="30"
   y="173.833"
   x="217.5" />
	<rect
   id="rect89"
   height="30"
   width="30"
   y="223.833"
   x="67.5" />
	<rect
   id="rect91"
   height="30"
   width="30"
   y="223.833"
   x="217.5" />
</g>
<g
   id="g95">
</g>
<g
   id="g97">
</g>
<g
   id="g99">
</g>
<g
   id="g101">
</g>
<g
   id="g103">
</g>
<g
   id="g105">
</g>
<g
   id="g107">
</g>
<g
   id="g109">
</g>
<g
   id="g111">
</g>
<g
   id="g113">
</g>
<g
   id="g115">
</g>
<g
   id="g117">
</g>
<g
   id="g119">
</g>
<g
   id="g121">
</g>
<g
   id="g123">
</g>
<path
   id="path132"
   d="M 0.30582524,282.2767 V 267.59709 H 11.315534 22.325243 V 184.1068 100.6165 H 11.570389 c -5.9151708,0 -10.66310747,-0.2245 -10.5509715,-0.49889 C 1.1315534,99.84322 15.811165,81.267199 33.640777,58.837574 l 32.417475,-40.78114 91.441748,-0.0025 91.44175,-0.0025 32.41747,40.777138 c 17.82961,22.427425 32.50923,41.00459 32.62136,41.282578 0.11214,0.27799 -4.6358,0.50544 -10.55097,0.50544 l -10.75485,-1e-5 v 83.4903 83.49029 h 11.00971 11.0097 v 14.67961 14.67961 H 157.5 0.30582524 Z M 117.74272,245.27184 V 224.1699 H 157.5 197.25728 v 21.10194 21.10195 h 33.02913 33.02912 V 184.41262 102.45146 H 157.5 51.684466 v 81.96116 81.96117 h 33.029126 33.029128 z"
   style="fill:#ffffff;stroke-width:0.61165" /><path
   id="path134"
   d="M 67.587379,238.84951 V 224.1699 H 82.26699 96.946602 v 14.67961 14.67962 H 82.26699 67.587379 Z"
   style="fill:#ffffff;stroke-width:0.61165" /><path
   id="path136"
   d="M 67.587379,188.69417 V 174.01456 H 82.26699 96.946602 v 14.67961 14.67962 H 82.26699 67.587379 Z"
   style="fill:#ffffff;stroke-width:0.61165" /><path
   id="path138"
   d="M 67.587379,138.84466 V 123.85922 H 82.26699 96.946602 v 14.98544 14.98544 H 82.26699 67.587379 Z"
   style="fill:#ffffff;stroke-width:0.61165" /><path
   id="path140"
   d="m 117.74272,138.84466 v -14.98544 h 14.67961 14.67961 v 14.98544 14.98544 h -14.67961 -14.67961 z"
   style="fill:#ffffff;stroke-width:0.61165" /><path
   id="path142"
   d="m 117.74272,188.69417 v -14.67961 h 14.67961 14.67961 v 14.67961 14.67962 h -14.67961 -14.67961 z"
   style="fill:#ffffff;stroke-width:0.61165" /><path
   id="path144"
   d="m 167.89806,188.69417 v -14.67961 h 14.67961 14.67961 v 14.67961 14.67962 h -14.67961 -14.67961 z"
   style="fill:#ffffff;stroke-width:0.61165" /><path
   id="path146"
   d="m 167.89806,138.84466 v -14.98544 h 14.67961 14.67961 v 14.98544 14.98544 h -14.67961 -14.67961 z"
   style="fill:#ffffff;stroke-width:0.61165" /><path
   id="path148"
   d="m 218.0534,138.84466 v -14.98544 h 14.67961 14.67961 v 14.98544 14.98544 H 232.73301 218.0534 Z"
   style="fill:#ffffff;stroke-width:0.61165" /><path
   id="path150"
   d="m 218.0534,188.69417 v -14.67961 h 14.67961 14.67961 v 14.67961 14.67962 H 232.73301 218.0534 Z"
   style="fill:#ffffff;stroke-width:0.61165" /><path
   id="path152"
   d="M 218.0534,238.84951 V 224.1699 h 14.67961 14.67961 v 14.67961 14.67962 H 232.73301 218.0534 Z"
   style="fill:#ffffff;stroke-width:0.61165" /></svg>
